<svg height="512pt" viewBox="0 0 512 512" width="512pt" xmlns="http://www.w3.org/2000/svg"><path d="m511 136c0 74.558594-60.441406 135-135 135s-135-60.441406-135-135 60.441406-136 135-136 135 61.441406 135 136zm0 0" fill="#e63950"/><path d="m479.597656 428.597656h-446.195312c48.296875-72.296875 88.199218-130.898437 106.5-203.5l79.199218-70.496094 36.898438 11.398438 58.800781 18.300781 62.101563 60.898438c27.296875 88.800781 81.996094 145.300781 102.695312 183.398437zm0 0" fill="#7c8388"/><path d="m479.597656 428.597656h-223.597656v-262.597656l58.800781 18.300781 62.101563 60.898438c27.296875 88.800781 81.996094 145.300781 102.695312 183.398437zm0 0" fill="#575f64"/><path d="m376.902344 245.199219-62.101563-30.898438-22.203125 22.199219c-2.996094 3-6.898437 4.5-10.796875 4.5-3.601562 0-7.5-1.5-10.5-4.5l-15.300781-15.300781-36.898438-36.597657-79.199218 40.496094c2.996094-11.996094 5.398437-24.597656 7.199218-37.5 2.398438-16.199218 3.898438-33.296875 3.898438-51.597656v-30c0-8.402344 6.597656-15 15-15h180c8.402344 0 15 6.597656 15 15v30c0 25.800781 2.699219 49.199219 6.597656 71.101562 2.703125 13.5 5.703125 26.097657 9.304688 38.097657zm0 0" fill="#f2f2fc"/><path d="m376.902344 245.199219-62.101563-30.898438-22.203125 22.199219c-2.996094 3-6.898437 4.5-10.796875 4.5-3.601562 0-7.5-1.5-10.5-4.5l-15.300781-15.300781v-130.199219h90c8.402344 0 15 6.597656 15 15v30c0 25.800781 2.703125 49.199219 6.601562 71.101562 2.699219 13.5 5.699219 26.097657 9.300782 38.097657zm0 0" fill="#d8d8fc"/><path d="m512 437c0 8.398438-6.597656 15-15 15h-482c-8.402344 0-15-6.601562-15-15 0-8.402344 6.597656-15 15-15h482c8.402344 0 15 6.597656 15 15zm0 0" fill="#f2f2fc"/><path d="m512 437c0 8.398438-6.597656 15-15 15h-241v-30h241c8.402344 0 15 6.597656 15 15zm0 0" fill="#d8d8fc"/><path d="m136 512h-60c-8.289062 0-15-6.710938-15-15s6.710938-15 15-15h60c8.289062 0 15 6.710938 15 15s-6.710938 15-15 15zm0 0" fill="#f2f2fc"/><path d="m226 512h-30c-8.289062 0-15-6.710938-15-15s6.710938-15 15-15h30c8.289062 0 15 6.710938 15 15s-6.710938 15-15 15zm0 0" fill="#f2f2fc"/><path d="m376 512h-90c-8.289062 0-15-6.710938-15-15s6.710938-15 15-15h90c8.289062 0 15 6.710938 15 15s-6.710938 15-15 15zm0 0" fill="#d8d8fc"/><path d="m451 497c0 8.285156-6.714844 15-15 15s-15-6.714844-15-15 6.714844-15 15-15 15 6.714844 15 15zm0 0" fill="#d8d8fc"/><path d="m151 271c0-33.136719-26.863281-60-60-60s-60 26.863281-60 60c-16.570312 0-31 13.429688-31 30 0 16.566406 14.429688 30 31 30h120c16.570312 0 30-13.433594 30-30 0-16.570312-13.429688-30-30-30zm0 0" fill="#f2f2fc"/></svg>