<svg height="512pt" viewBox="0 0 512 512" width="512pt" xmlns="http://www.w3.org/2000/svg"><path d="m512 256c0 141.386719-114.613281 256-256 256s-256-114.613281-256-256 114.613281-256 256-256 256 114.613281 256 256zm0 0" fill="#ff583e"/><path d="m511.992188 256.632812-64.304688-64.304687-34.726562 17.691406-156.960938-156.960937-19.96875 155.128906-171.71875-15.859375 129.199219 129.199219-55.980469 96.144531 93.078125 93.074219c8.351563.824218 16.820313 1.253906 25.390625 1.253906 141.171875 0 255.648438-114.273438 255.992188-255.367188zm0 0" fill="#ef1111"/><path d="m374.46875 417.671875-118.46875-86.074219-118.46875 86.074219 45.25-139.269531-118.46875-86.074219h146.4375l45.25-139.269531 45.25 139.269531h146.4375l-118.46875 86.074219zm-92.949219-104.617187 35.886719 26.074218-13.707031-42.1875zm-73.21875-16.113282-13.707031 42.1875 35.886719-26.074218zm9.75-30 37.949219 27.574219 37.949219-27.574219-14.496094-44.613281h-46.90625zm92.949219-44.613281 8.46875 26.074219 35.886719-26.074219zm-154.355469 0 35.886719 26.074219 8.46875-26.074219zm85.648438-30h27.414062l-13.707031-42.1875zm0 0" fill="#0a773b"/><path d="m447.6875 192.328125h-146.4375l-45.25-139.269531v97.082031l13.707031 42.1875h-13.707031v30h23.453125l14.496094 44.613281-37.949219 27.574219v37.082031l118.46875 86.074219-45.25-139.269531zm-166.167969 120.726563 22.179688-16.113282 13.707031 42.1875zm29.480469-90.726563h44.355469l-35.886719 26.074219zm0 0" fill="#085b2c"/></svg>